Coordinates
version=1
nRows=14
nColumns=40
inDegrees=yes

Units are S.I. units (second, meters, Newtons, ...)
If the header above contains a line with 'inDegrees', this indicates whether rotational values are in degrees (yes) or radians (no).

endheader
time	pelvis_tilt	pelvis_list	pelvis_rotation	pelvis_tx	pelvis_ty	pelvis_tz	hip_flexion_r	hip_adduction_r	hip_rotation_r	knee_angle_r	knee_angle_r_beta	ankle_angle_r	subtalar_angle_r	mtp_angle_r	hip_flexion_l	hip_adduction_l	hip_rotation_l	knee_angle_l	knee_angle_l_beta	ankle_angle_l	subtalar_angle_l	mtp_angle_l	lumbar_extension	lumbar_bending	lumbar_rotation	arm_flex_r	arm_add_r	arm_rot_r	elbow_flex_r	pro_sup_r	wrist_flex_r	wrist_dev_r	arm_flex_l	arm_add_l	arm_rot_l	elbow_flex_l	pro_sup_l	wrist_flex_l	wrist_dev_l
      3.00000000	     -6.33325565	     -9.79393426	     -1.27768221	     -0.22731910	      1.06093961	     -1.04852638	     31.43706193	     -1.24574269	     -3.86016917	    112.83501777	      1.96934257	    -16.46410411	      0.00000000	      0.00000000	     18.95420432	     -5.71955549	     -5.26251830	     28.12086806	      0.49080174	      7.68982308	      0.00000000	      0.00000000	     -0.30751550	      6.23128654	     -0.77605671	     89.01024318	    -14.25252209	     45.72124150	     31.09065736	     86.35182243	      0.00000000	      0.00000000	     89.61136647	    -21.12803302	     46.63126528	     30.50402146	     85.49746139	      0.00000000	      0.00000000
      3.00500000	     -6.56494356	     -9.75943330	     -1.35670212	     -0.22798829	      1.06020331	     -1.04838919	     31.50076415	     -1.19264607	     -3.87240030	    112.81948105	      1.96907140	    -16.48010821	      0.00000000	      0.00000000	     19.40638250	     -5.73715565	     -5.31055150	     28.43974533	      0.49636719	      7.76201219	      0.00000000	      0.00000000	     -0.15752492	      6.18727665	     -0.69687111	     89.06278728	    -14.32812293	     46.11953890	     31.16401480	     85.64665844	      0.00000000	      0.00000000	     89.63416610	    -21.15461277	     46.98757683	     30.59623800	     84.60198722	      0.00000000	      0.00000000
      3.01000000	     -6.70145419	     -9.70668840	     -1.42937527	     -0.22852688	      1.05967570	     -1.04821945	     31.40427694	     -1.14383697	     -3.87025988	    112.78697295	      1.96850403	    -16.38924825	      0.00000000	      0.00000000	     19.71178495	     -5.73535976	     -5.41407236	     28.67643780	      0.50049826	      7.72386654	      0.00000000	      0.00000000	     -0.11579829	      6.10479252	     -0.63735888	     89.07271054	    -14.25761967	     45.70494334	     31.10888682	     86.40841734	      0.00000000	      0.00000000	     89.62954030	    -21.09448212	     46.42942991	     30.59348351	     85.49627459	      0.00000000	      0.00000000
      3.01500000	     -6.82782430	     -9.67556750	     -1.45327531	     -0.22926037	      1.05922355	     -1.04808249	     31.33571563	     -1.10720579	     -3.94485993	    112.74178985	      1.96771544	    -16.40721329	      0.00000000	      0.00000000	     20.13350381	     -5.78661403	     -5.58106017	     29.13066268	      0.50842598	      7.66133521	      0.00000000	      0.00000000	     -0.11682851	      6.05885203	     -0.65568402	     89.14272586	    -14.22001217	     45.66744716	     31.21638452	     86.26522228	      0.00000000	      0.00000000	     89.63958568	    -21.14954865	     46.34639692	     30.71048887	     85.38119351	      0.00000000	      0.00000000
      3.02000000	     -6.94558679	     -9.63791140	     -1.49761685	     -0.22983765	      1.05864217	     -1.04798350	     31.23138938	     -1.05414901	     -3.95757614	    112.70108186	      1.96700495	    -16.43412785	      0.00000000	      0.00000000	     20.40142629	     -5.76041008	     -5.52074860	     29.33083223	      0.51191959	      7.69851550	      0.00000000	      0.00000000	     -0.10777551	      5.99677870	     -0.62685005	     89.16207936	    -14.17505709	     45.58331508	     31.19003075	     86.38388775	      0.00000000	      0.00000000	     89.65156070	    -21.13477058	     46.06997046	     30.70288386	     85.48377016	      0.00000000	      0.00000000
      3.02500000	     -6.74225955	    -10.30670493	     -1.63787220	     -0.22944894	      1.05858753	     -1.04636250	     30.57600709	      0.02027604	     -4.30191404	    112.36761795	      1.96118491	    -16.49269293	      0.00000000	      0.00000000	     20.15596744	     -8.39948883	     -9.53508061	     29.59313026	      0.51649756	      8.70755965	      0.00000000	      0.00000000	     -0.39028953	      6.62567135	     -0.44696403	     89.20165777	    -14.12434508	     45.57658777	     31.14109801	     86.33339974	      0.00000000	      0.00000000	     89.66405109	    -21.17360769	     45.97263398	     30.77864004	     85.51508014	      0.00000000	      0.00000000
      3.03000000	     -6.88026364	    -10.26444763	     -1.72179702	     -0.22994102	      1.05794309	     -1.04623579	     30.47219615	      0.05908764	     -4.30448980	    112.34235082	      1.96074391	    -16.43161307	      0.00000000	      0.00000000	     20.47210350	     -8.39825089	     -9.51173545	     29.88311010	      0.52155866	      8.77137411	      0.00000000	      0.00000000	     -0.34180220	      6.57102747	     -0.37027973	     89.23572667	    -14.11524405	     45.54354539	     31.14729561	     86.32851313	      0.00000000	      0.00000000	     89.66849318	    -21.15577644	     45.88633839	     30.79696013	     85.41385875	      0.00000000	      0.00000000
      3.03500000	     -7.09194407	    -10.21242378	     -1.81032295	     -0.23059741	      1.05712023	     -1.04612961	     30.48078156	      0.11881386	     -4.29206953	    112.35155516	      1.96090456	    -16.36067280	      0.00000000	      0.00000000	     20.89089125	     -8.39079360	     -9.51631315	     30.19601142	      0.52701982	      8.81608322	      0.00000000	      0.00000000	     -0.20915943	      6.50420333	     -0.28174619	     89.29620004	    -14.18952404	     46.03545236	     31.26098128	     84.91503629	      0.00000000	      0.00000000	     89.68837448	    -21.11206721	     46.32409665	     30.78314929	     83.95779947	      0.00000000	      0.00000000
      3.04000000	     -7.19247946	    -10.14559991	     -1.86464919	     -0.23115068	      1.05644247	     -1.04610417	     30.35164059	      0.10362029	     -4.30391278	    112.33401320	      1.96059839	    -16.38782367	      0.00000000	      0.00000000	     21.16206879	     -8.33545516	     -9.42964172	     30.45511992	      0.53154212	      8.87159477	      0.00000000	      0.00000000	     -0.20772020	      6.42644211	     -0.22610594	     89.34043242	    -14.18314773	     46.08576989	     31.25094551	     85.21939157	      0.00000000	      0.00000000	     89.69812107	    -21.09275661	     46.16914248	     30.84912890	     84.14695509	      0.00000000	      0.00000000
      3.04500000	     -7.30919841	    -10.04084078	     -1.90378694	     -0.23168959	      1.05579688	     -1.04616279	     30.22185372	      0.05213608	     -4.31612469	    112.29351658	      1.95989159	    -16.44835710	      0.00000000	      0.00000000	     21.37695382	     -8.23442761	     -9.46901977	     30.56166765	      0.53340173	      8.93481000	      0.00000000	      0.00000000	     -0.20409534	      6.31094093	     -0.22737243	     89.32893493	    -14.06470463	     45.41981905	     31.21782486	     86.35217544	      0.00000000	      0.00000000	     89.69280369	    -21.08121654	     45.35069105	     30.84458851	     85.47018939	      0.00000000	      0.00000000
      3.05000000	     -7.44334262	     -9.99512047	     -1.97804808	     -0.23227102	      1.05506320	     -1.04606476	     30.13685701	      0.08428243	     -4.33685749	    112.27487047	      1.95956616	    -16.60524093	      0.00000000	      0.00000000	     21.68409722	     -8.22484418	     -9.45863190	     30.83011728	      0.53808706	      9.05007354	      0.00000000	      0.00000000	     -0.18543670	      6.25506655	     -0.16275759	     89.36423084	    -14.05228969	     45.28427903	     31.28280535	     86.33077758	      0.00000000	      0.00000000	     89.69917568	    -21.10807083	     45.13640040	     30.98653450	     85.40806868	      0.00000000	      0.00000000
      3.05500000	     -7.54822219	     -9.91817045	     -2.04957342	     -0.23277654	      1.05439191	     -1.04601237	     29.99252557	      0.08231564	     -4.33076074	    112.25734463	      1.95926027	    -16.59321186	      0.00000000	      0.00000000	     21.93888830	     -8.16879647	     -9.43106507	     31.07337368	      0.54233268	      9.13469298	      0.00000000	      0.00000000	     -0.17945292	      6.16618331	     -0.10584512	     89.39648903	    -14.04951120	     45.33646352	     31.32976398	     86.32761630	      0.00000000	      0.00000000	     89.70538066	    -21.13166005	     45.07233407	     31.06611742	     85.40052788	      0.00000000	      0.00000000
      3.06000000	     -7.68109077	     -9.80817050	     -2.12508176	     -0.23334512	      1.05359643	     -1.04602985	     29.88451903	      0.04251634	     -4.29667574	    112.24474396	      1.95904035	    -16.55843927	      0.00000000	      0.00000000	     22.21241850	     -8.08304735	     -9.48970235	     31.27105985	      0.54578296	      9.18014030	      0.00000000	      0.00000000	     -0.13582187	      6.05405961	     -0.01801904	     89.42569394	    -14.07437346	     45.31807668	     31.39316733	     86.31142291	      0.00000000	      0.00000000	     89.71421362	    -21.07872863	     44.85943590	     31.04022664	     85.50804317	      0.00000000	      0.00000000
      3.06500000	     -7.76786939	     -9.72997425	     -2.18843376	     -0.23378995	      1.05287582	     -1.04601326	     29.71703968	      0.03049013	     -4.31134023	    112.22273626	      1.95865624	    -16.57833798	      0.00000000	      0.00000000	     22.42276137	     -8.02211318	     -9.46966698	     31.47528619	      0.54934738	      9.31157614	      0.00000000	      0.00000000	     -0.14334235	      5.96605844	      0.04198364	     89.44481798	    -14.05982634	     45.18631282	     31.45107267	     86.31199336	      0.00000000	      0.00000000	     89.71734748	    -21.04415084	     44.68186676	     31.04717627	     85.50608741	      0.00000000	      0.00000000
